<svg width="173" height="30" viewBox="0 0 173 30" fill="none" xmlns="http://www.w3.org/2000/svg">
<path d="M14.51 18.3392V25.256L19.7626 29V22.3581L14.51 18.3392Z" fill="#F4AA58"/>
<path d="M14.51 18.3392V25.256L9.25745 29V22.3581L14.51 18.3392Z" fill="#F4AA58"/>
<path d="M14.51 19.3545V25.7848L18.9979 29V22.7812L14.51 19.3545Z" fill="#C21E1E"/>
<path d="M14.5101 19.3545V25.7848L10.0021 29V22.7812L14.5101 19.3545Z" fill="#1956C4"/>
<path d="M17.7501 15.8643L23.9888 18.0007L29 13.8972L23.0027 11.8665L17.7501 15.8643Z" fill="#F4AA58"/>
<path d="M17.7501 15.8643L23.9888 18.0007L25.7598 24.4099L19.7626 22.3581L17.7501 15.8643Z" fill="#F4AA58"/>
<path d="M18.6558 16.1816L24.492 18.1699L28.7786 14.6586L23.1436 12.7338L18.6558 16.1816Z" fill="#C21E1E"/>
<path d="M18.6558 16.1816L24.492 18.1699L25.9812 23.6484L20.3664 21.7447L18.6558 16.1816Z" fill="#1956C4"/>
<path d="M11.2498 15.8643L5.0111 18.0007L0 13.8972L5.99722 11.8665L11.2498 15.8643Z" fill="#F4AA58"/>
<path d="M11.2498 15.8643L5.0111 18.0007L3.24011 24.4099L9.25746 22.3581L11.2498 15.8643Z" fill="#F4AA58"/>
<path d="M10.3442 16.1816L4.52806 18.1699L0.241455 14.6586L5.8563 12.7338L10.3442 16.1816Z" fill="#C21E1E"/>
<path d="M10.3442 16.1816L4.52805 18.1699L3.01868 23.6484L8.63353 21.7447L10.3442 16.1816Z" fill="#1956C4"/>
<path d="M12.4975 11.8665L8.63354 6.26112L10.7869 0L14.51 5.37272L12.4975 11.8665Z" fill="#F4AA58"/>
<path d="M12.4975 11.8665L8.63354 6.26111L2.29419 6.49379L5.99718 11.8665H12.4975Z" fill="#F4AA58"/>
<path d="M11.934 11.0416L8.33167 5.83808L10.1832 0.465363L13.6648 5.47849L11.934 11.0416Z" fill="#C21E1E"/>
<path d="M11.934 11.0416L8.33168 5.83807L2.89795 6.02845L6.37956 11.0416H11.934Z" fill="#1956C4"/>
<path d="M16.5024 11.8665L20.3664 6.26112L18.213 0L14.51 5.37272L16.5024 11.8665Z" fill="#F4AA58"/>
<path d="M16.5023 11.8665L20.3663 6.26111L26.7056 6.49379L23.0027 11.8665H16.5023Z" fill="#F4AA58"/>
<path d="M17.0658 11.0416L20.6682 5.83808L18.8167 0.465363L15.3552 5.47849L17.0658 11.0416Z" fill="#C21E1E"/>
<path d="M17.0658 11.0416L20.6682 5.83807L26.1019 6.02845L22.6203 11.0416H17.0658Z" fill="#1956C4"/>
<path d="M35.9531 2.5V13H34.3125V2.5H35.9531ZM35.666 9.02832L35.1328 9.02148C35.1374 8.51107 35.208 8.03939 35.3447 7.60645C35.486 7.1735 35.682 6.79753 35.9326 6.47852C36.1878 6.15495 36.4932 5.90658 36.8486 5.7334C37.2041 5.55566 37.5983 5.4668 38.0312 5.4668C38.3958 5.4668 38.724 5.51693 39.0156 5.61719C39.3118 5.71745 39.5671 5.87923 39.7812 6.10254C39.9954 6.32129 40.1572 6.6084 40.2666 6.96387C40.3805 7.31478 40.4375 7.74316 40.4375 8.24902V13H38.7832V8.23535C38.7832 7.87988 38.7308 7.59733 38.626 7.3877C38.5257 7.17806 38.3776 7.02767 38.1816 6.93652C37.9857 6.84082 37.7464 6.79297 37.4639 6.79297C37.1676 6.79297 36.9056 6.85221 36.6777 6.9707C36.4544 7.08919 36.2676 7.25098 36.1172 7.45605C35.9668 7.66113 35.8529 7.89811 35.7754 8.16699C35.7025 8.43587 35.666 8.72298 35.666 9.02832ZM46.5557 11.2568V5.60352H48.21V13H46.6514L46.5557 11.2568ZM46.7881 9.71875L47.3418 9.70508C47.3418 10.2018 47.2871 10.6598 47.1777 11.0791C47.0684 11.4938 46.8997 11.8561 46.6719 12.166C46.444 12.4714 46.1523 12.7106 45.7969 12.8838C45.4414 13.0524 45.0153 13.1367 44.5186 13.1367C44.1585 13.1367 43.8281 13.0843 43.5273 12.9795C43.2266 12.8747 42.9668 12.7129 42.748 12.4941C42.5339 12.2754 42.3675 11.9906 42.249 11.6396C42.1305 11.2887 42.0713 10.8695 42.0713 10.3818V5.60352H43.7188V10.3955C43.7188 10.6644 43.7507 10.89 43.8145 11.0723C43.8783 11.25 43.9648 11.3936 44.0742 11.5029C44.1836 11.6123 44.3112 11.6898 44.457 11.7354C44.6029 11.7809 44.7578 11.8037 44.9219 11.8037C45.3913 11.8037 45.7604 11.7126 46.0293 11.5303C46.3027 11.3434 46.4964 11.0928 46.6104 10.7783C46.7288 10.4639 46.7881 10.1107 46.7881 9.71875ZM49.584 9.38379V9.22656C49.584 8.69336 49.6615 8.19889 49.8164 7.74316C49.9714 7.28288 50.1947 6.88411 50.4863 6.54688C50.7826 6.20508 51.1426 5.94076 51.5664 5.75391C51.9948 5.5625 52.4779 5.4668 53.0156 5.4668C53.5579 5.4668 54.041 5.5625 54.4648 5.75391C54.8932 5.94076 55.2555 6.20508 55.5518 6.54688C55.848 6.88411 56.0736 7.28288 56.2285 7.74316C56.3835 8.19889 56.4609 8.69336 56.4609 9.22656V9.38379C56.4609 9.91699 56.3835 10.4115 56.2285 10.8672C56.0736 11.3229 55.848 11.7217 55.5518 12.0635C55.2555 12.4007 54.8955 12.665 54.4717 12.8564C54.0479 13.0433 53.5671 13.1367 53.0293 13.1367C52.487 13.1367 52.0016 13.0433 51.5732 12.8564C51.1494 12.665 50.7894 12.4007 50.4932 12.0635C50.1969 11.7217 49.9714 11.3229 49.8164 10.8672C49.6615 10.4115 49.584 9.91699 49.584 9.38379ZM51.2314 9.22656V9.38379C51.2314 9.71647 51.2656 10.0309 51.334 10.3271C51.4023 10.6234 51.5094 10.8831 51.6553 11.1064C51.8011 11.3298 51.988 11.5052 52.2158 11.6328C52.4437 11.7604 52.7148 11.8242 53.0293 11.8242C53.3346 11.8242 53.599 11.7604 53.8223 11.6328C54.0501 11.5052 54.237 11.3298 54.3828 11.1064C54.5286 10.8831 54.6357 10.6234 54.7041 10.3271C54.777 10.0309 54.8135 9.71647 54.8135 9.38379V9.22656C54.8135 8.89844 54.777 8.58854 54.7041 8.29688C54.6357 8.00065 54.5264 7.73861 54.376 7.51074C54.2301 7.28288 54.0433 7.10514 53.8154 6.97754C53.5921 6.84538 53.3255 6.7793 53.0156 6.7793C52.7057 6.7793 52.4368 6.84538 52.209 6.97754C51.9857 7.10514 51.8011 7.28288 51.6553 7.51074C51.5094 7.73861 51.4023 8.00065 51.334 8.29688C51.2656 8.58854 51.2314 8.89844 51.2314 9.22656ZM59.4756 7.18262V13H57.8281V5.60352H59.3799L59.4756 7.18262ZM59.1816 9.02832L58.6484 9.02148C58.653 8.4974 58.7259 8.0166 58.8672 7.5791C59.013 7.1416 59.2135 6.76562 59.4688 6.45117C59.7285 6.13672 60.0384 5.89518 60.3984 5.72656C60.7585 5.55339 61.1595 5.4668 61.6016 5.4668C61.957 5.4668 62.2783 5.51693 62.5654 5.61719C62.8571 5.71289 63.1055 5.87012 63.3105 6.08887C63.5202 6.30762 63.6797 6.59245 63.7891 6.94336C63.8984 7.28971 63.9531 7.71582 63.9531 8.22168V13H62.2988V8.21484C62.2988 7.85938 62.2464 7.5791 62.1416 7.37402C62.0413 7.16439 61.8932 7.01628 61.6973 6.92969C61.5059 6.83854 61.2666 6.79297 60.9795 6.79297C60.6969 6.79297 60.444 6.85221 60.2207 6.9707C59.9974 7.08919 59.8083 7.25098 59.6533 7.45605C59.5029 7.66113 59.3867 7.89811 59.3047 8.16699C59.2227 8.43587 59.1816 8.72298 59.1816 9.02832ZM70.3721 5.60352H71.8691V12.7949C71.8691 13.4603 71.7279 14.0254 71.4453 14.4902C71.1628 14.9551 70.7686 15.3083 70.2627 15.5498C69.7568 15.7959 69.1712 15.9189 68.5059 15.9189C68.2233 15.9189 67.9089 15.8779 67.5625 15.7959C67.2207 15.7139 66.888 15.5817 66.5645 15.3994C66.2454 15.2217 65.9788 14.987 65.7646 14.6953L66.5371 13.7246C66.8014 14.0391 67.0931 14.2692 67.4121 14.415C67.7311 14.5609 68.0661 14.6338 68.417 14.6338C68.7952 14.6338 69.1165 14.5632 69.3809 14.4219C69.6497 14.2852 69.8571 14.0824 70.0029 13.8135C70.1488 13.5446 70.2217 13.2165 70.2217 12.8291V7.27832L70.3721 5.60352ZM65.3477 9.38379V9.24023C65.3477 8.67969 65.416 8.16927 65.5527 7.70898C65.6895 7.24414 65.8854 6.84538 66.1406 6.5127C66.3958 6.17546 66.7057 5.91797 67.0703 5.74023C67.4349 5.55794 67.8473 5.4668 68.3076 5.4668C68.7861 5.4668 69.194 5.55339 69.5312 5.72656C69.873 5.89974 70.1579 6.14811 70.3857 6.47168C70.6136 6.79069 70.7913 7.1735 70.9189 7.62012C71.0511 8.06217 71.1491 8.55436 71.2129 9.09668V9.55469C71.1536 10.0833 71.0534 10.5664 70.9121 11.0039C70.7708 11.4414 70.584 11.8197 70.3516 12.1387C70.1191 12.4577 69.832 12.7038 69.4902 12.877C69.153 13.0501 68.7542 13.1367 68.2939 13.1367C67.8428 13.1367 67.4349 13.0433 67.0703 12.8564C66.7103 12.6696 66.4004 12.4076 66.1406 12.0703C65.8854 11.7331 65.6895 11.3366 65.5527 10.8809C65.416 10.4206 65.3477 9.92155 65.3477 9.38379ZM66.9951 9.24023V9.38379C66.9951 9.72103 67.027 10.0355 67.0908 10.3271C67.1592 10.6188 67.2617 10.8763 67.3984 11.0996C67.5397 11.3184 67.7174 11.4915 67.9316 11.6191C68.1504 11.7422 68.4079 11.8037 68.7041 11.8037C69.0915 11.8037 69.4082 11.7217 69.6543 11.5576C69.9049 11.3936 70.0964 11.1725 70.2285 10.8945C70.3652 10.612 70.4609 10.2975 70.5156 9.95117V8.71387C70.4883 8.44499 70.4313 8.19434 70.3447 7.96191C70.2627 7.72949 70.151 7.52669 70.0098 7.35352C69.8685 7.17578 69.6908 7.03906 69.4766 6.94336C69.2624 6.8431 69.0094 6.79297 68.7178 6.79297C68.4215 6.79297 68.1641 6.85677 67.9453 6.98438C67.7266 7.11198 67.5465 7.28743 67.4053 7.51074C67.2686 7.73405 67.166 7.99382 67.0977 8.29004C67.0293 8.58626 66.9951 8.90299 66.9951 9.24023ZM75.2119 7.18262V13H73.5645V5.60352H75.1162L75.2119 7.18262ZM74.918 9.02832L74.3848 9.02148C74.3893 8.4974 74.4622 8.0166 74.6035 7.5791C74.7493 7.1416 74.9499 6.76562 75.2051 6.45117C75.4648 6.13672 75.7747 5.89518 76.1348 5.72656C76.4948 5.55339 76.8958 5.4668 77.3379 5.4668C77.6934 5.4668 78.0146 5.51693 78.3018 5.61719C78.5934 5.71289 78.8418 5.87012 79.0469 6.08887C79.2565 6.30762 79.416 6.59245 79.5254 6.94336C79.6348 7.28971 79.6895 7.71582 79.6895 8.22168V13H78.0352V8.21484C78.0352 7.85938 77.9827 7.5791 77.8779 7.37402C77.7777 7.16439 77.6296 7.01628 77.4336 6.92969C77.2422 6.83854 77.0029 6.79297 76.7158 6.79297C76.4333 6.79297 76.1803 6.85221 75.957 6.9707C75.7337 7.08919 75.5446 7.25098 75.3896 7.45605C75.2393 7.66113 75.123 7.89811 75.041 8.16699C74.959 8.43587 74.918 8.72298 74.918 9.02832ZM86.1084 5.60352H87.6055V12.7949C87.6055 13.4603 87.4642 14.0254 87.1816 14.4902C86.8991 14.9551 86.5049 15.3083 85.999 15.5498C85.4932 15.7959 84.9076 15.9189 84.2422 15.9189C83.9596 15.9189 83.6452 15.8779 83.2988 15.7959C82.957 15.7139 82.6243 15.5817 82.3008 15.3994C81.9818 15.2217 81.7152 14.987 81.501 14.6953L82.2734 13.7246C82.5378 14.0391 82.8294 14.2692 83.1484 14.415C83.4674 14.5609 83.8024 14.6338 84.1533 14.6338C84.5316 14.6338 84.8529 14.5632 85.1172 14.4219C85.3861 14.2852 85.5934 14.0824 85.7393 13.8135C85.8851 13.5446 85.958 13.2165 85.958 12.8291V7.27832L86.1084 5.60352ZM81.084 9.38379V9.24023C81.084 8.67969 81.1523 8.16927 81.2891 7.70898C81.4258 7.24414 81.6217 6.84538 81.877 6.5127C82.1322 6.17546 82.4421 5.91797 82.8066 5.74023C83.1712 5.55794 83.5837 5.4668 84.0439 5.4668C84.5225 5.4668 84.9303 5.55339 85.2676 5.72656C85.6094 5.89974 85.8942 6.14811 86.1221 6.47168C86.3499 6.79069 86.5277 7.1735 86.6553 7.62012C86.7874 8.06217 86.8854 8.55436 86.9492 9.09668V9.55469C86.89 10.0833 86.7897 10.5664 86.6484 11.0039C86.5072 11.4414 86.3203 11.8197 86.0879 12.1387C85.8555 12.4577 85.5684 12.7038 85.2266 12.877C84.8893 13.0501 84.4906 13.1367 84.0303 13.1367C83.5791 13.1367 83.1712 13.0433 82.8066 12.8564C82.4466 12.6696 82.1367 12.4076 81.877 12.0703C81.6217 11.7331 81.4258 11.3366 81.2891 10.8809C81.1523 10.4206 81.084 9.92155 81.084 9.38379ZM82.7314 9.24023V9.38379C82.7314 9.72103 82.7633 10.0355 82.8271 10.3271C82.8955 10.6188 82.998 10.8763 83.1348 11.0996C83.276 11.3184 83.4538 11.4915 83.668 11.6191C83.8867 11.7422 84.1442 11.8037 84.4404 11.8037C84.8278 11.8037 85.1445 11.7217 85.3906 11.5576C85.6413 11.3936 85.8327 11.1725 85.9648 10.8945C86.1016 10.612 86.1973 10.2975 86.252 9.95117V8.71387C86.2246 8.44499 86.1676 8.19434 86.0811 7.96191C85.999 7.72949 85.8874 7.52669 85.7461 7.35352C85.6048 7.17578 85.4271 7.03906 85.2129 6.94336C84.9987 6.8431 84.7458 6.79297 84.4541 6.79297C84.1579 6.79297 83.9004 6.85677 83.6816 6.98438C83.4629 7.11198 83.2829 7.28743 83.1416 7.51074C83.0049 7.73405 82.9023 7.99382 82.834 8.29004C82.7656 8.58626 82.7314 8.90299 82.7314 9.24023ZM90.9414 2.5V13H89.3008V2.5H90.9414ZM90.6543 9.02832L90.1211 9.02148C90.1257 8.51107 90.1963 8.03939 90.333 7.60645C90.4743 7.1735 90.6702 6.79753 90.9209 6.47852C91.1761 6.15495 91.4814 5.90658 91.8369 5.7334C92.1924 5.55566 92.5866 5.4668 93.0195 5.4668C93.3841 5.4668 93.7122 5.51693 94.0039 5.61719C94.3001 5.71745 94.5553 5.87923 94.7695 6.10254C94.9837 6.32129 95.1455 6.6084 95.2549 6.96387C95.3688 7.31478 95.4258 7.74316 95.4258 8.24902V13H93.7715V8.23535C93.7715 7.87988 93.7191 7.59733 93.6143 7.3877C93.514 7.17806 93.3659 7.02767 93.1699 6.93652C92.974 6.84082 92.7347 6.79297 92.4521 6.79297C92.1559 6.79297 91.8939 6.85221 91.666 6.9707C91.4427 7.08919 91.2559 7.25098 91.1055 7.45605C90.9551 7.66113 90.8411 7.89811 90.7637 8.16699C90.6908 8.43587 90.6543 8.72298 90.6543 9.02832ZM98.8574 5.60352V13H97.2031V5.60352H98.8574ZM97.0938 3.66211C97.0938 3.41146 97.1758 3.2041 97.3398 3.04004C97.5085 2.87142 97.7409 2.78711 98.0371 2.78711C98.3288 2.78711 98.5589 2.87142 98.7275 3.04004C98.8962 3.2041 98.9805 3.41146 98.9805 3.66211C98.9805 3.9082 98.8962 4.11328 98.7275 4.27734C98.5589 4.44141 98.3288 4.52344 98.0371 4.52344C97.7409 4.52344 97.5085 4.44141 97.3398 4.27734C97.1758 4.11328 97.0938 3.9082 97.0938 3.66211ZM103.923 13.1367C103.376 13.1367 102.882 13.0479 102.439 12.8701C102.002 12.6878 101.628 12.4349 101.318 12.1113C101.013 11.7878 100.778 11.4072 100.614 10.9697C100.45 10.5322 100.368 10.0605 100.368 9.55469V9.28125C100.368 8.70247 100.452 8.17839 100.621 7.70898C100.79 7.23958 101.024 6.83854 101.325 6.50586C101.626 6.16862 101.981 5.91113 102.392 5.7334C102.802 5.55566 103.246 5.4668 103.725 5.4668C104.253 5.4668 104.716 5.55566 105.112 5.7334C105.509 5.91113 105.837 6.16178 106.097 6.48535C106.361 6.80436 106.557 7.1849 106.685 7.62695C106.817 8.06901 106.883 8.55664 106.883 9.08984V9.79395H101.168V8.61133H105.256V8.48145C105.247 8.18522 105.188 7.90723 105.078 7.64746C104.973 7.3877 104.812 7.17806 104.593 7.01855C104.374 6.85905 104.082 6.7793 103.718 6.7793C103.444 6.7793 103.201 6.83854 102.986 6.95703C102.777 7.07096 102.601 7.2373 102.46 7.45605C102.319 7.6748 102.209 7.93913 102.132 8.24902C102.059 8.55436 102.022 8.89844 102.022 9.28125V9.55469C102.022 9.87826 102.066 10.179 102.152 10.457C102.243 10.7305 102.376 10.9697 102.549 11.1748C102.722 11.3799 102.932 11.5417 103.178 11.6602C103.424 11.7741 103.704 11.8311 104.019 11.8311C104.415 11.8311 104.768 11.7513 105.078 11.5918C105.388 11.4323 105.657 11.2067 105.885 10.915L106.753 11.7559C106.593 11.9883 106.386 12.2116 106.131 12.4258C105.876 12.6354 105.563 12.8063 105.194 12.9385C104.83 13.0706 104.406 13.1367 103.923 13.1367ZM109.822 7.02539V15.8438H108.175V5.60352H109.692L109.822 7.02539ZM114.642 9.2334V9.37695C114.642 9.91471 114.578 10.4137 114.45 10.874C114.327 11.3298 114.143 11.7285 113.896 12.0703C113.655 12.4076 113.356 12.6696 113.001 12.8564C112.646 13.0433 112.235 13.1367 111.771 13.1367C111.31 13.1367 110.907 13.0524 110.561 12.8838C110.219 12.7106 109.929 12.4668 109.692 12.1523C109.455 11.8379 109.264 11.4688 109.118 11.0449C108.977 10.6165 108.877 10.1471 108.817 9.63672V9.08301C108.877 8.54069 108.977 8.0485 109.118 7.60645C109.264 7.16439 109.455 6.78385 109.692 6.46484C109.929 6.14583 110.219 5.89974 110.561 5.72656C110.902 5.55339 111.301 5.4668 111.757 5.4668C112.222 5.4668 112.634 5.55794 112.994 5.74023C113.354 5.91797 113.657 6.17318 113.903 6.50586C114.149 6.83398 114.334 7.23047 114.457 7.69531C114.58 8.1556 114.642 8.66829 114.642 9.2334ZM112.994 9.37695V9.2334C112.994 8.8916 112.962 8.57487 112.898 8.2832C112.835 7.98698 112.734 7.72721 112.598 7.50391C112.461 7.2806 112.285 7.10742 112.071 6.98438C111.862 6.85677 111.609 6.79297 111.312 6.79297C111.021 6.79297 110.77 6.8431 110.561 6.94336C110.351 7.03906 110.175 7.1735 110.034 7.34668C109.893 7.51986 109.784 7.72266 109.706 7.95508C109.629 8.18294 109.574 8.43132 109.542 8.7002V10.0264C109.597 10.3545 109.69 10.6553 109.822 10.9287C109.954 11.2021 110.141 11.4209 110.383 11.585C110.629 11.7445 110.943 11.8242 111.326 11.8242C111.622 11.8242 111.875 11.7604 112.085 11.6328C112.295 11.5052 112.465 11.3298 112.598 11.1064C112.734 10.8786 112.835 10.6165 112.898 10.3203C112.962 10.0241 112.994 9.70964 112.994 9.37695ZM117.677 7.18262V13H116.029V5.60352H117.581L117.677 7.18262ZM117.383 9.02832L116.85 9.02148C116.854 8.4974 116.927 8.0166 117.068 7.5791C117.214 7.1416 117.415 6.76562 117.67 6.45117C117.93 6.13672 118.24 5.89518 118.6 5.72656C118.96 5.55339 119.361 5.4668 119.803 5.4668C120.158 5.4668 120.479 5.51693 120.767 5.61719C121.058 5.71289 121.307 5.87012 121.512 6.08887C121.721 6.30762 121.881 6.59245 121.99 6.94336C122.1 7.28971 122.154 7.71582 122.154 8.22168V13H120.5V8.21484C120.5 7.85938 120.448 7.5791 120.343 7.37402C120.243 7.16439 120.094 7.01628 119.898 6.92969C119.707 6.83854 119.468 6.79297 119.181 6.79297C118.898 6.79297 118.645 6.85221 118.422 6.9707C118.199 7.08919 118.009 7.25098 117.854 7.45605C117.704 7.66113 117.588 7.89811 117.506 8.16699C117.424 8.43587 117.383 8.72298 117.383 9.02832ZM125.463 2.5V13H123.822V2.5H125.463ZM125.176 9.02832L124.643 9.02148C124.647 8.51107 124.718 8.03939 124.854 7.60645C124.996 7.1735 125.192 6.79753 125.442 6.47852C125.698 6.15495 126.003 5.90658 126.358 5.7334C126.714 5.55566 127.108 5.4668 127.541 5.4668C127.906 5.4668 128.234 5.51693 128.525 5.61719C128.822 5.71745 129.077 5.87923 129.291 6.10254C129.505 6.32129 129.667 6.6084 129.776 6.96387C129.89 7.31478 129.947 7.74316 129.947 8.24902V13H128.293V8.23535C128.293 7.87988 128.241 7.59733 128.136 7.3877C128.035 7.17806 127.887 7.02767 127.691 6.93652C127.495 6.84082 127.256 6.79297 126.974 6.79297C126.677 6.79297 126.415 6.85221 126.188 6.9707C125.964 7.08919 125.777 7.25098 125.627 7.45605C125.477 7.66113 125.363 7.89811 125.285 8.16699C125.212 8.43587 125.176 8.72298 125.176 9.02832ZM135.785 11.5166V7.98926C135.785 7.72493 135.737 7.49707 135.642 7.30566C135.546 7.11426 135.4 6.96615 135.204 6.86133C135.013 6.75651 134.771 6.7041 134.479 6.7041C134.211 6.7041 133.978 6.74967 133.782 6.84082C133.586 6.93197 133.434 7.05501 133.324 7.20996C133.215 7.36491 133.16 7.54036 133.16 7.73633H131.52C131.52 7.44466 131.59 7.16211 131.731 6.88867C131.873 6.61523 132.078 6.37142 132.347 6.15723C132.616 5.94303 132.937 5.77441 133.311 5.65137C133.684 5.52832 134.104 5.4668 134.568 5.4668C135.124 5.4668 135.617 5.56022 136.045 5.74707C136.478 5.93392 136.817 6.21647 137.063 6.59473C137.314 6.96842 137.439 7.43783 137.439 8.00293V11.291C137.439 11.6283 137.462 11.9313 137.508 12.2002C137.558 12.4645 137.629 12.6947 137.72 12.8906V13H136.031C135.954 12.8223 135.892 12.5967 135.847 12.3232C135.806 12.0452 135.785 11.7764 135.785 11.5166ZM136.024 8.50195L136.038 9.52051H134.855C134.55 9.52051 134.281 9.55013 134.049 9.60938C133.816 9.66406 133.623 9.74609 133.468 9.85547C133.313 9.96484 133.197 10.097 133.119 10.252C133.042 10.4069 133.003 10.5824 133.003 10.7783C133.003 10.9743 133.049 11.1543 133.14 11.3184C133.231 11.4779 133.363 11.6032 133.536 11.6943C133.714 11.7855 133.928 11.8311 134.179 11.8311C134.516 11.8311 134.81 11.7627 135.061 11.626C135.316 11.4847 135.516 11.3138 135.662 11.1133C135.808 10.9082 135.885 10.7145 135.895 10.5322L136.428 11.2637C136.373 11.4505 136.28 11.651 136.147 11.8652C136.015 12.0794 135.842 12.2845 135.628 12.4805C135.418 12.6719 135.165 12.8291 134.869 12.9521C134.577 13.0752 134.24 13.1367 133.857 13.1367C133.374 13.1367 132.944 13.041 132.565 12.8496C132.187 12.6536 131.891 12.3916 131.677 12.0635C131.463 11.7308 131.355 11.3548 131.355 10.9355C131.355 10.5436 131.428 10.1973 131.574 9.89648C131.725 9.59115 131.943 9.33594 132.23 9.13086C132.522 8.92578 132.878 8.77083 133.297 8.66602C133.716 8.55664 134.195 8.50195 134.732 8.50195H136.024ZM140.796 7.18262V13H139.148V5.60352H140.7L140.796 7.18262ZM140.502 9.02832L139.969 9.02148C139.973 8.4974 140.046 8.0166 140.188 7.5791C140.333 7.1416 140.534 6.76562 140.789 6.45117C141.049 6.13672 141.359 5.89518 141.719 5.72656C142.079 5.55339 142.48 5.4668 142.922 5.4668C143.277 5.4668 143.599 5.51693 143.886 5.61719C144.177 5.71289 144.426 5.87012 144.631 6.08887C144.84 6.30762 145 6.59245 145.109 6.94336C145.219 7.28971 145.273 7.71582 145.273 8.22168V13H143.619V8.21484C143.619 7.85938 143.567 7.5791 143.462 7.37402C143.362 7.16439 143.214 7.01628 143.018 6.92969C142.826 6.83854 142.587 6.79297 142.3 6.79297C142.017 6.79297 141.764 6.85221 141.541 6.9707C141.318 7.08919 141.129 7.25098 140.974 7.45605C140.823 7.66113 140.707 7.89811 140.625 8.16699C140.543 8.43587 140.502 8.72298 140.502 9.02832ZM148.582 2.5V13H146.941V2.5H148.582ZM148.295 9.02832L147.762 9.02148C147.766 8.51107 147.837 8.03939 147.974 7.60645C148.115 7.1735 148.311 6.79753 148.562 6.47852C148.817 6.15495 149.122 5.90658 149.478 5.7334C149.833 5.55566 150.227 5.4668 150.66 5.4668C151.025 5.4668 151.353 5.51693 151.645 5.61719C151.941 5.71745 152.196 5.87923 152.41 6.10254C152.624 6.32129 152.786 6.6084 152.896 6.96387C153.009 7.31478 153.066 7.74316 153.066 8.24902V13H151.412V8.23535C151.412 7.87988 151.36 7.59733 151.255 7.3877C151.155 7.17806 151.007 7.02767 150.811 6.93652C150.615 6.84082 150.375 6.79297 150.093 6.79297C149.797 6.79297 149.535 6.85221 149.307 6.9707C149.083 7.08919 148.896 7.25098 148.746 7.45605C148.596 7.66113 148.482 7.89811 148.404 8.16699C148.331 8.43587 148.295 8.72298 148.295 9.02832ZM154.803 12.1797C154.803 11.9245 154.889 11.7103 155.062 11.5371C155.236 11.3594 155.47 11.2705 155.767 11.2705C156.067 11.2705 156.302 11.3594 156.471 11.5371C156.644 11.7103 156.73 11.9245 156.73 12.1797C156.73 12.4349 156.644 12.6491 156.471 12.8223C156.302 12.9954 156.067 13.082 155.767 13.082C155.47 13.082 155.236 12.9954 155.062 12.8223C154.889 12.6491 154.803 12.4349 154.803 12.1797ZM161.037 11.6943L162.849 5.60352H164.558L161.987 13H160.921L161.037 11.6943ZM159.649 5.60352L161.495 11.7217L161.584 13H160.518L157.934 5.60352H159.649ZM167.21 7.18262V13H165.562V5.60352H167.114L167.21 7.18262ZM166.916 9.02832L166.383 9.02148C166.387 8.4974 166.46 8.0166 166.602 7.5791C166.747 7.1416 166.948 6.76562 167.203 6.45117C167.463 6.13672 167.773 5.89518 168.133 5.72656C168.493 5.55339 168.894 5.4668 169.336 5.4668C169.691 5.4668 170.013 5.51693 170.3 5.61719C170.591 5.71289 170.84 5.87012 171.045 6.08887C171.255 6.30762 171.414 6.59245 171.523 6.94336C171.633 7.28971 171.688 7.71582 171.688 8.22168V13H170.033V8.21484C170.033 7.85938 169.981 7.5791 169.876 7.37402C169.776 7.16439 169.628 7.01628 169.432 6.92969C169.24 6.83854 169.001 6.79297 168.714 6.79297C168.431 6.79297 168.178 6.85221 167.955 6.9707C167.732 7.08919 167.543 7.25098 167.388 7.45605C167.237 7.66113 167.121 7.89811 167.039 8.16699C166.957 8.43587 166.916 8.72298 166.916 9.02832Z" fill="#242c3a"/>
<path d="M34.2354 19.1797H35.2397L37.8018 25.5552L40.3584 19.1797H41.3682L38.1885 27H37.4043L34.2354 19.1797ZM33.9077 19.1797H34.7939L34.939 23.9492V27H33.9077V19.1797ZM40.8042 19.1797H41.6904V27H40.6592V23.9492L40.8042 19.1797ZM45.7725 27.1074C45.3678 27.1074 45.0008 27.0394 44.6714 26.9033C44.3455 26.7637 44.0645 26.5685 43.8281 26.3179C43.5954 26.0672 43.4163 25.77 43.291 25.4263C43.1657 25.0825 43.103 24.7065 43.103 24.2983V24.0728C43.103 23.6001 43.1729 23.1794 43.3125 22.8105C43.4521 22.4382 43.6419 22.123 43.8818 21.8652C44.1217 21.6074 44.3939 21.4123 44.6982 21.2798C45.0026 21.1473 45.3177 21.0811 45.6436 21.0811C46.0589 21.0811 46.417 21.1527 46.7178 21.2959C47.0221 21.4391 47.271 21.6396 47.4644 21.8975C47.6577 22.1517 47.8009 22.4525 47.894 22.7998C47.9871 23.1436 48.0337 23.5195 48.0337 23.9277V24.3735H43.6938V23.5625H47.04V23.4873C47.0257 23.2295 46.972 22.9788 46.8789 22.7354C46.7894 22.4919 46.6462 22.2913 46.4492 22.1338C46.2523 21.9762 45.9837 21.8975 45.6436 21.8975C45.418 21.8975 45.2103 21.9458 45.0205 22.0425C44.8307 22.1356 44.6678 22.2752 44.5317 22.4614C44.3957 22.6476 44.29 22.875 44.2148 23.1436C44.1396 23.4121 44.1021 23.7218 44.1021 24.0728V24.2983C44.1021 24.5741 44.1396 24.8337 44.2148 25.0771C44.2936 25.3171 44.4064 25.5283 44.5532 25.7109C44.7036 25.8936 44.8844 26.0368 45.0957 26.1406C45.3105 26.2445 45.554 26.2964 45.8262 26.2964C46.1771 26.2964 46.4743 26.2248 46.7178 26.0815C46.9613 25.9383 47.1743 25.7467 47.3569 25.5068L47.9585 25.9849C47.8332 26.1746 47.6738 26.3555 47.4805 26.5273C47.2871 26.6992 47.049 26.8389 46.7661 26.9463C46.4868 27.0537 46.1556 27.1074 45.7725 27.1074ZM51.6055 27.1074C51.2008 27.1074 50.8338 27.0394 50.5044 26.9033C50.1785 26.7637 49.8975 26.5685 49.6611 26.3179C49.4284 26.0672 49.2493 25.77 49.124 25.4263C48.9987 25.0825 48.936 24.7065 48.936 24.2983V24.0728C48.936 23.6001 49.0059 23.1794 49.1455 22.8105C49.2852 22.4382 49.4749 22.123 49.7148 21.8652C49.9548 21.6074 50.2269 21.4123 50.5312 21.2798C50.8356 21.1473 51.1507 21.0811 51.4766 21.0811C51.8919 21.0811 52.25 21.1527 52.5508 21.2959C52.8551 21.4391 53.104 21.6396 53.2974 21.8975C53.4907 22.1517 53.634 22.4525 53.7271 22.7998C53.8201 23.1436 53.8667 23.5195 53.8667 23.9277V24.3735H49.5269V23.5625H52.873V23.4873C52.8587 23.2295 52.805 22.9788 52.7119 22.7354C52.6224 22.4919 52.4792 22.2913 52.2822 22.1338C52.0853 21.9762 51.8167 21.8975 51.4766 21.8975C51.251 21.8975 51.0433 21.9458 50.8535 22.0425C50.6637 22.1356 50.5008 22.2752 50.3647 22.4614C50.2287 22.6476 50.123 22.875 50.0479 23.1436C49.9727 23.4121 49.9351 23.7218 49.9351 24.0728V24.2983C49.9351 24.5741 49.9727 24.8337 50.0479 25.0771C50.1266 25.3171 50.2394 25.5283 50.3862 25.7109C50.5366 25.8936 50.7174 26.0368 50.9287 26.1406C51.1436 26.2445 51.387 26.2964 51.6592 26.2964C52.0101 26.2964 52.3073 26.2248 52.5508 26.0815C52.7943 25.9383 53.0073 25.7467 53.1899 25.5068L53.7915 25.9849C53.6662 26.1746 53.5068 26.3555 53.3135 26.5273C53.1201 26.6992 52.882 26.8389 52.5991 26.9463C52.3198 27.0537 51.9886 27.1074 51.6055 27.1074ZM57.46 21.1885V21.9512H54.3179V21.1885H57.46ZM55.3813 19.7759H56.375V25.5605C56.375 25.7575 56.4054 25.9061 56.4663 26.0063C56.5272 26.1066 56.606 26.1729 56.7026 26.2051C56.7993 26.2373 56.9032 26.2534 57.0142 26.2534C57.0965 26.2534 57.1825 26.2463 57.272 26.2319C57.3651 26.214 57.4349 26.1997 57.4814 26.189L57.4868 27C57.408 27.0251 57.3042 27.0483 57.1753 27.0698C57.05 27.0949 56.8978 27.1074 56.7188 27.1074C56.4753 27.1074 56.2515 27.0591 56.0474 26.9624C55.8433 26.8657 55.6803 26.7046 55.5586 26.479C55.4404 26.2498 55.3813 25.9419 55.3813 25.5552V19.7759ZM62.9868 26.3984L64.6035 21.1885H65.667L63.3359 27.897C63.2822 28.0402 63.2106 28.1942 63.1211 28.3589C63.0352 28.5272 62.9242 28.6865 62.7881 28.8369C62.652 28.9873 62.4873 29.109 62.2939 29.2021C62.1042 29.2988 61.8768 29.3472 61.6118 29.3472C61.533 29.3472 61.4328 29.3364 61.311 29.3149C61.1893 29.2935 61.1034 29.2756 61.0532 29.2612L61.0479 28.4556C61.0765 28.4591 61.1213 28.4627 61.1821 28.4663C61.2466 28.4735 61.2913 28.4771 61.3164 28.4771C61.542 28.4771 61.7336 28.4466 61.8911 28.3857C62.0487 28.3285 62.1812 28.23 62.2886 28.0903C62.3996 27.9543 62.4945 27.7663 62.5732 27.5264L62.9868 26.3984ZM61.7998 21.1885L63.3091 25.7002L63.5669 26.7476L62.8525 27.1128L60.7148 21.1885H61.7998ZM66.2148 24.1587V24.0352C66.2148 23.6162 66.2757 23.2277 66.3975 22.8696C66.5192 22.508 66.6947 22.1947 66.9238 21.9297C67.153 21.6611 67.4305 21.4535 67.7563 21.3066C68.0822 21.1562 68.4474 21.0811 68.8521 21.0811C69.2603 21.0811 69.6273 21.1562 69.9531 21.3066C70.2826 21.4535 70.5618 21.6611 70.791 21.9297C71.0238 22.1947 71.201 22.508 71.3228 22.8696C71.4445 23.2277 71.5054 23.6162 71.5054 24.0352V24.1587C71.5054 24.5776 71.4445 24.9661 71.3228 25.3242C71.201 25.6823 71.0238 25.9956 70.791 26.2642C70.5618 26.5291 70.2843 26.7368 69.9585 26.8872C69.6362 27.034 69.271 27.1074 68.8628 27.1074C68.4546 27.1074 68.0876 27.034 67.7617 26.8872C67.4359 26.7368 67.1566 26.5291 66.9238 26.2642C66.6947 25.9956 66.5192 25.6823 66.3975 25.3242C66.2757 24.9661 66.2148 24.5776 66.2148 24.1587ZM67.2085 24.0352V24.1587C67.2085 24.4487 67.2425 24.7227 67.3105 24.9805C67.3786 25.2347 67.4806 25.4603 67.6167 25.6572C67.7563 25.8542 67.93 26.0099 68.1377 26.1245C68.3454 26.2355 68.5871 26.291 68.8628 26.291C69.1349 26.291 69.373 26.2355 69.5771 26.1245C69.7848 26.0099 69.9567 25.8542 70.0928 25.6572C70.2288 25.4603 70.3309 25.2347 70.3989 24.9805C70.4705 24.7227 70.5063 24.4487 70.5063 24.1587V24.0352C70.5063 23.7487 70.4705 23.4784 70.3989 23.2241C70.3309 22.9663 70.2271 22.7389 70.0874 22.542C69.9513 22.3415 69.7795 22.1839 69.5718 22.0693C69.3677 21.9548 69.1278 21.8975 68.8521 21.8975C68.5799 21.8975 68.34 21.9548 68.1323 22.0693C67.9282 22.1839 67.7563 22.3415 67.6167 22.542C67.4806 22.7389 67.3786 22.9663 67.3105 23.2241C67.2425 23.4784 67.2085 23.7487 67.2085 24.0352ZM76.3071 25.6572V21.1885H77.3062V27H76.3555L76.3071 25.6572ZM76.4951 24.4326L76.9087 24.4219C76.9087 24.8086 76.8675 25.1667 76.7852 25.4961C76.7064 25.8219 76.5775 26.1048 76.3984 26.3447C76.2194 26.5846 75.9849 26.7726 75.6948 26.9087C75.4048 27.0412 75.0521 27.1074 74.6367 27.1074C74.3538 27.1074 74.0942 27.0662 73.8579 26.9839C73.6252 26.9015 73.4246 26.7744 73.2563 26.6025C73.0881 26.4307 72.9574 26.2069 72.8643 25.9312C72.7747 25.6554 72.73 25.3242 72.73 24.9375V21.1885H73.7236V24.9482C73.7236 25.2096 73.7523 25.4263 73.8096 25.5981C73.8704 25.7664 73.951 25.9007 74.0513 26.001C74.1551 26.0977 74.2697 26.1657 74.395 26.2051C74.5239 26.2445 74.6564 26.2642 74.7925 26.2642C75.215 26.2642 75.5498 26.1836 75.7969 26.0225C76.0439 25.8577 76.2212 25.6375 76.3286 25.3618C76.4396 25.0825 76.4951 24.7728 76.4951 24.4326ZM79.8145 22.1016V27H78.8208V21.1885H79.7876L79.8145 22.1016ZM81.6299 21.1562L81.6245 22.0801C81.5422 22.0622 81.4634 22.0514 81.3882 22.0479C81.3166 22.0407 81.2342 22.0371 81.1411 22.0371C80.9119 22.0371 80.7096 22.0729 80.5342 22.1445C80.3587 22.2161 80.2101 22.3164 80.0884 22.4453C79.9666 22.5742 79.87 22.7282 79.7983 22.9072C79.7303 23.0827 79.6855 23.276 79.6641 23.4873L79.3848 23.6484C79.3848 23.2975 79.4188 22.9681 79.4868 22.6602C79.5584 22.3522 79.6676 22.0801 79.8145 21.8438C79.9613 21.6038 80.1475 21.4176 80.373 21.2852C80.6022 21.1491 80.8743 21.0811 81.1895 21.0811C81.2611 21.0811 81.3434 21.09 81.4365 21.1079C81.5296 21.1222 81.5941 21.1383 81.6299 21.1562ZM85.7549 19.1797H86.7593L89.3213 25.5552L91.8779 19.1797H92.8877L89.708 27H88.9238L85.7549 19.1797ZM85.4272 19.1797H86.3135L86.4585 23.9492V27H85.4272V19.1797ZM92.3237 19.1797H93.21V27H92.1787V23.9492L92.3237 19.1797ZM97.292 27.1074C96.8874 27.1074 96.5203 27.0394 96.1909 26.9033C95.8651 26.7637 95.584 26.5685 95.3477 26.3179C95.1149 26.0672 94.9359 25.77 94.8105 25.4263C94.6852 25.0825 94.6226 24.7065 94.6226 24.2983V24.0728C94.6226 23.6001 94.6924 23.1794 94.832 22.8105C94.9717 22.4382 95.1615 22.123 95.4014 21.8652C95.6413 21.6074 95.9134 21.4123 96.2178 21.2798C96.5221 21.1473 96.8372 21.0811 97.1631 21.0811C97.5785 21.0811 97.9365 21.1527 98.2373 21.2959C98.5417 21.4391 98.7905 21.6396 98.9839 21.8975C99.1772 22.1517 99.3205 22.4525 99.4136 22.7998C99.5067 23.1436 99.5532 23.5195 99.5532 23.9277V24.3735H95.2134V23.5625H98.5596V23.4873C98.5452 23.2295 98.4915 22.9788 98.3984 22.7354C98.3089 22.4919 98.1657 22.2913 97.9688 22.1338C97.7718 21.9762 97.5033 21.8975 97.1631 21.8975C96.9375 21.8975 96.7298 21.9458 96.54 22.0425C96.3503 22.1356 96.1873 22.2752 96.0513 22.4614C95.9152 22.6476 95.8096 22.875 95.7344 23.1436C95.6592 23.4121 95.6216 23.7218 95.6216 24.0728V24.2983C95.6216 24.5741 95.6592 24.8337 95.7344 25.0771C95.8132 25.3171 95.9259 25.5283 96.0728 25.7109C96.2231 25.8936 96.404 26.0368 96.6152 26.1406C96.8301 26.2445 97.0736 26.2964 97.3457 26.2964C97.6966 26.2964 97.9938 26.2248 98.2373 26.0815C98.4808 25.9383 98.6938 25.7467 98.8765 25.5068L99.478 25.9849C99.3527 26.1746 99.1934 26.3555 99 26.5273C98.8066 26.6992 98.5685 26.8389 98.2856 26.9463C98.0063 27.0537 97.6751 27.1074 97.292 27.1074ZM101.707 22.4292V27H100.713V21.1885H101.653L101.707 22.4292ZM101.471 23.874L101.057 23.8579C101.061 23.4604 101.12 23.0934 101.234 22.7568C101.349 22.4167 101.51 22.1213 101.718 21.8706C101.925 21.62 102.173 21.4266 102.459 21.2905C102.749 21.1509 103.069 21.0811 103.42 21.0811C103.707 21.0811 103.965 21.1204 104.194 21.1992C104.423 21.2744 104.618 21.3962 104.779 21.5645C104.944 21.7327 105.069 21.9512 105.155 22.2197C105.241 22.4847 105.284 22.8088 105.284 23.1919V27H104.285V23.1812C104.285 22.8768 104.24 22.6333 104.151 22.4507C104.061 22.2645 103.931 22.1302 103.759 22.0479C103.587 21.9619 103.376 21.9189 103.125 21.9189C102.878 21.9189 102.652 21.9709 102.448 22.0747C102.248 22.1785 102.074 22.3218 101.927 22.5044C101.784 22.687 101.671 22.8965 101.589 23.1328C101.51 23.3656 101.471 23.6126 101.471 23.874ZM109.227 21.1885V21.9512H106.084V21.1885H109.227ZM107.148 19.7759H108.142V25.5605C108.142 25.7575 108.172 25.9061 108.233 26.0063C108.294 26.1066 108.373 26.1729 108.469 26.2051C108.566 26.2373 108.67 26.2534 108.781 26.2534C108.863 26.2534 108.949 26.2463 109.039 26.2319C109.132 26.214 109.201 26.1997 109.248 26.189L109.253 27C109.175 27.0251 109.071 27.0483 108.942 27.0698C108.817 27.0949 108.664 27.1074 108.485 27.1074C108.242 27.1074 108.018 27.0591 107.814 26.9624C107.61 26.8657 107.447 26.7046 107.325 26.479C107.207 26.2498 107.148 25.9419 107.148 25.5552V19.7759ZM110.021 24.1587V24.0352C110.021 23.6162 110.082 23.2277 110.204 22.8696C110.326 22.508 110.501 22.1947 110.73 21.9297C110.96 21.6611 111.237 21.4535 111.563 21.3066C111.889 21.1562 112.254 21.0811 112.659 21.0811C113.067 21.0811 113.434 21.1562 113.76 21.3066C114.089 21.4535 114.368 21.6611 114.598 21.9297C114.83 22.1947 115.008 22.508 115.129 22.8696C115.251 23.2277 115.312 23.6162 115.312 24.0352V24.1587C115.312 24.5776 115.251 24.9661 115.129 25.3242C115.008 25.6823 114.83 25.9956 114.598 26.2642C114.368 26.5291 114.091 26.7368 113.765 26.8872C113.443 27.034 113.078 27.1074 112.669 27.1074C112.261 27.1074 111.894 27.034 111.568 26.8872C111.243 26.7368 110.963 26.5291 110.73 26.2642C110.501 25.9956 110.326 25.6823 110.204 25.3242C110.082 24.9661 110.021 24.5776 110.021 24.1587ZM111.015 24.0352V24.1587C111.015 24.4487 111.049 24.7227 111.117 24.9805C111.185 25.2347 111.287 25.4603 111.423 25.6572C111.563 25.8542 111.737 26.0099 111.944 26.1245C112.152 26.2355 112.394 26.291 112.669 26.291C112.942 26.291 113.18 26.2355 113.384 26.1245C113.591 26.0099 113.763 25.8542 113.899 25.6572C114.035 25.4603 114.138 25.2347 114.206 24.9805C114.277 24.7227 114.313 24.4487 114.313 24.1587V24.0352C114.313 23.7487 114.277 23.4784 114.206 23.2241C114.138 22.9663 114.034 22.7389 113.894 22.542C113.758 22.3415 113.586 22.1839 113.378 22.0693C113.174 21.9548 112.934 21.8975 112.659 21.8975C112.387 21.8975 112.147 21.9548 111.939 22.0693C111.735 22.1839 111.563 22.3415 111.423 22.542C111.287 22.7389 111.185 22.9663 111.117 23.2241C111.049 23.4784 111.015 23.7487 111.015 24.0352ZM117.552 22.1016V27H116.558V21.1885H117.525L117.552 22.1016ZM119.367 21.1562L119.362 22.0801C119.279 22.0622 119.201 22.0514 119.125 22.0479C119.054 22.0407 118.972 22.0371 118.878 22.0371C118.649 22.0371 118.447 22.0729 118.271 22.1445C118.096 22.2161 117.947 22.3164 117.826 22.4453C117.704 22.5742 117.607 22.7282 117.536 22.9072C117.468 23.0827 117.423 23.276 117.401 23.4873L117.122 23.6484C117.122 23.2975 117.156 22.9681 117.224 22.6602C117.296 22.3522 117.405 22.0801 117.552 21.8438C117.699 21.6038 117.885 21.4176 118.11 21.2852C118.34 21.1491 118.612 21.0811 118.927 21.0811C118.998 21.0811 119.081 21.09 119.174 21.1079C119.267 21.1222 119.331 21.1383 119.367 21.1562Z" fill="#242c3a"/>
</svg>
